<?xml version="1.0" encoding="UTF-8"?>
<svg version="1.1" xmlns="http://www.w3.org/2000/svg" width="200" height="200">
<path d="M0 0 C66 0 132 0 200 0 C200 66 200 132 200 200 C134 200 68 200 0 200 C0 134 0 68 0 0 Z " fill="#335847" transform="translate(0,0)"/>
<path d="M0 0 C0.64604187 -0.00700928 1.29208374 -0.01401855 1.95770264 -0.02124023 C4.08755834 -0.03880645 6.21607868 -0.02720288 8.34594727 -0.01367188 C9.83041132 -0.01636756 11.31487365 -0.02025062 12.79933167 -0.02526855 C15.90887277 -0.03116195 19.01795384 -0.02260766 22.12744141 -0.00390625 C26.10676749 0.01886412 30.08501328 0.00577258 34.06429958 -0.01819611 C37.12962427 -0.03267583 40.19469443 -0.02803797 43.26002693 -0.01768494 C44.72679841 -0.01502259 46.19359324 -0.01827013 47.66033745 -0.02760315 C49.71428139 -0.03780337 51.76649678 -0.02222274 53.8203125 0 C54.98739243 0.00318237 56.15447235 0.00636475 57.35691833 0.00964355 C61.26393294 0.64612497 62.8781548 1.52356377 65.47485352 4.51757812 C65.94269736 7.25583952 66.08858942 9.36754741 66.00732422 12.09667969 C66.00495758 12.85494553 66.00259094 13.61321136 66.00015259 14.39445496 C65.99229191 16.03854178 65.97320141 17.68260475 65.94417763 19.32645416 C65.90020226 21.93384729 65.88990222 24.53941348 65.88896179 27.14715576 C65.88019023 34.55907102 65.81046898 41.97003387 65.71875 49.38134766 C65.66493526 53.91850077 65.65022723 58.45449312 65.65834618 62.99193573 C65.65324038 64.71591256 65.63288419 66.43991739 65.59664345 68.16352081 C65.13825874 77.60159779 65.13825874 77.60159779 68.18832397 86.26306152 C70.17922177 88.25897634 72.20538674 89.85569637 74.47485352 91.51757812 C75.67391401 92.82185678 76.84543815 94.15254705 77.97485352 95.51757812 C81.03621563 99.09972367 84.33182373 102.3467743 87.77563477 105.56054688 C91.4825515 109.82989236 91.9012647 114.23104184 91.80297852 119.67773438 C91.14003131 125.41538456 89.64154126 132.35089038 85.47485352 136.51757812 C85.07721089 138.50579126 84.73710003 140.50702152 84.47485352 142.51757812 C83.81485352 142.51757812 83.15485352 142.51757812 82.47485352 142.51757812 C82.35110352 143.23945313 82.22735352 143.96132812 82.09985352 144.70507812 C81.48436042 147.47479707 80.59040977 149.91461352 79.47485352 152.51757812 C78.48485352 152.51757812 77.49485352 152.51757812 76.47485352 152.51757812 C76.97706741 147.49543919 78.11586183 143.95248249 80.47485352 139.51757812 C80.78422852 138.56882813 81.09360352 137.62007812 81.41235352 136.64257812 C82.28718977 134.06953031 83.22897788 132.11135894 84.53735352 129.76757812 C87.66672056 123.70661073 87.52235907 117.20398508 87.47485352 110.51757812 C86.81485352 110.51757812 86.15485352 110.51757812 85.47485352 110.51757812 C85.08297852 109.83695312 84.69110352 109.15632813 84.28735352 108.45507812 C82.31128906 105.2524909 80.07110812 103.02264613 77.38110352 100.42382812 C74.77823477 97.82095938 72.42087142 95.03281905 70.05297852 92.21679688 C68.38750376 90.29165295 68.38750376 90.29165295 65.47485352 88.51757812 C65.48532715 89.50153564 65.49580078 90.48549316 65.5065918 91.49926758 C65.54279383 95.15010947 65.56575467 98.80093549 65.5847168 102.4519043 C65.59477393 104.03200956 65.60842136 105.61209623 65.62573242 107.19213867 C65.64999373 109.46342562 65.66133934 111.73446649 65.67016602 114.00585938 C65.68048859 114.71221024 65.69081116 115.4185611 65.70144653 116.14631653 C65.70229126 119.83955604 65.58205874 121.35677028 63.47485352 124.51757812 C62.81485352 124.51757812 62.15485352 124.51757812 61.47485352 124.51757812 C61.47485352 125.17757812 61.47485352 125.83757812 61.47485352 126.51757812 C53.31860352 127.14498197 53.31860352 127.14498197 50.03735352 124.70507812 C47.47671822 121.12018871 46.22343933 119.25359176 46.27954102 114.84960938 C46.28598633 113.95693359 46.29243164 113.06425781 46.29907227 112.14453125 C46.32420898 110.75137695 46.32420898 110.75137695 46.34985352 109.33007812 C46.35887695 108.38970703 46.36790039 107.44933594 46.37719727 106.48046875 C46.40076295 104.15924845 46.43366235 101.83854169 46.47485352 99.51757812 C42.72134681 97.40521504 40.68673216 97.41882718 36.47485352 98.51757812 C33.95180438 101.04062726 34.20766169 101.93089139 34.15600586 105.42626953 C34.13613617 106.44717682 34.11626648 107.46808411 34.09579468 108.51992798 C34.08424347 109.62516815 34.07269226 110.73040833 34.06079102 111.86914062 C34.04142487 112.99830902 34.02205872 114.12747742 34.00210571 115.29086304 C33.94218282 118.90802384 33.89587349 122.52521626 33.84985352 126.14257812 C33.81168546 128.5905089 33.77263444 131.03842608 33.73266602 133.48632812 C33.63647093 139.49662436 33.55146086 145.50700206 33.47485352 151.51757812 C32.81485352 151.51757812 32.15485352 151.51757812 31.47485352 151.51757812 C31.47485352 143.59757813 31.47485352 135.67757812 31.47485352 127.51757812 C28.86192383 127.56398438 26.24899414 127.61039062 23.55688477 127.65820312 C21.01841167 127.68942293 18.4799602 127.71369682 15.94140625 127.73730469 C14.18089176 127.75738599 12.42044369 127.78465692 10.66015625 127.81933594 C8.12556549 127.86800924 5.59185857 127.89058118 3.05688477 127.90820312 C2.27336136 127.92884827 1.48983795 127.94949341 0.68257141 127.97076416 C-3.0995826 127.97230751 -5.29235387 127.66294115 -8.53100586 125.640625 C-10.52514648 123.51757812 -10.52514648 123.51757812 -11.01342773 121.15820312 C-10.92641602 119.97484375 -10.92641602 119.97484375 -10.83764648 118.76757812 C-10.7925293 117.96835938 -10.74741211 117.16914063 -10.70092773 116.34570312 C-10.64291992 115.74242187 -10.58491211 115.13914062 -10.52514648 114.51757812 C-11.09362305 114.66195312 -11.66209961 114.80632812 -12.24780273 114.95507812 C-17.06498772 116.11313261 -21.5468331 117.10326205 -26.52514648 116.51757812 C-30.44278715 113.48289056 -31.4627171 110.41399577 -32.71264648 105.70507812 C-33.03620117 104.52300781 -33.35975586 103.3409375 -33.69311523 102.12304688 C-35.1462809 95.82599565 -35.63785831 89.9421523 -35.52514648 83.51757812 C-36.18514648 83.51757812 -36.84514648 83.51757812 -37.52514648 83.51757812 C-37.63060791 82.88891846 -37.73606934 82.26025879 -37.84472656 81.61254883 C-40.45936983 66.05368913 -40.45936983 66.05368913 -43.79858398 50.63867188 C-44.68725962 46.82118891 -45.46794547 42.99042049 -46.21264648 39.14257812 C-46.46401367 37.85609375 -46.71538086 36.56960937 -46.97436523 35.24414062 C-47.51199056 31.60659058 -47.62473839 28.1882512 -47.52514648 24.51757812 C-43.85633494 25.22311881 -40.82064114 26.79493319 -37.52514648 28.51757812 C-36.31886641 26.18543665 -35.35967269 24.02115674 -34.52514648 21.51757812 C-33.20514648 21.51757812 -31.88514648 21.51757812 -30.52514648 21.51757812 C-30.52514648 22.17757812 -30.52514648 22.83757813 -30.52514648 23.51757812 C-28.21514648 24.17757812 -25.90514648 24.83757813 -23.52514648 25.51757812 C-23.30858398 24.58945312 -23.30858398 24.58945312 -23.08764648 23.64257812 C-22.52514648 21.51757812 -22.52514648 21.51757812 -21.52514648 19.51757812 C-16.67665985 18.94716793 -14.40603551 20.7869803 -10.52514648 23.51757812 C-10.54609375 22.96295898 -10.56704102 22.40833984 -10.58862305 21.83691406 C-10.67198196 19.3139879 -10.72386516 16.79135164 -10.77514648 14.26757812 C-10.80866211 13.39488281 -10.84217773 12.5221875 -10.87670898 11.62304688 C-10.88959961 10.77871094 -10.90249023 9.934375 -10.91577148 9.06445312 C-10.93671875 8.2894043 -10.95766602 7.51435547 -10.97924805 6.71582031 C-9.75325243 0.78094689 -5.36349021 0.01463505 0 0 Z " fill="#DBE1DE" transform="translate(78.525146484375,23.482421875)"/>
<path d="M0 0 C1.01037827 0.00222061 2.02075653 0.00444122 3.06175232 0.00672913 C4.79745483 0.0069104 4.79745483 0.0069104 6.56822205 0.00709534 C8.40664673 0.01476929 8.40664673 0.01476929 10.2822113 0.02259827 C11.4017218 0.02360535 12.5212323 0.02461243 13.67466736 0.02565002 C17.87589027 0.03090102 22.07709864 0.04486213 26.27830505 0.05775452 C35.66268005 0.07837952 45.04705505 0.09900452 54.71580505 0.12025452 C54.71580505 35.76025452 54.71580505 71.40025452 54.71580505 108.12025452 C52.73580505 108.12025452 50.75580505 108.12025452 48.71580505 108.12025452 C48.70162537 106.86728577 48.68744568 105.61431702 48.6728363 104.32337952 C48.62593067 102.67230124 48.57768331 101.0212607 48.52830505 99.37025452 C48.52250427 98.54525452 48.51670349 97.72025452 48.51072693 96.87025452 C48.3387966 91.72365113 48.3387966 91.72365113 45.3915863 87.59681702 C42.08410233 85.77166528 39.48177069 85.25973473 35.71580505 85.12025452 C34.72580505 85.78025452 33.73580505 86.44025452 32.71580505 87.12025452 C29.92845154 87.40736389 29.92845154 87.40736389 26.5868988 87.46400452 C24.78768982 87.50847717 24.78768982 87.50847717 22.95213318 87.55384827 C20.41567604 87.59818736 17.8792177 87.64245799 15.34275818 87.68666077 C14.14457458 87.7163092 12.94639099 87.74595764 11.7118988 87.77650452 C10.61031433 87.79519592 9.50872986 87.81388733 8.37376404 87.83314514 C5.56219252 87.8558149 5.56219252 87.8558149 3.71580505 90.12025452 C3.3968099 92.48980837 3.3968099 92.48980837 3.46580505 95.12025452 C3.4606488 96.00712952 3.45549255 96.89400452 3.45018005 97.80775452 C3.49527643 100.31425691 3.49527643 100.31425691 5.71580505 102.12025452 C8.138271 102.4912116 8.138271 102.4912116 10.94236755 102.53431702 C11.97361755 102.57298889 13.00486755 102.61166077 14.06736755 102.65150452 C15.14760193 102.68244202 16.2278363 102.71337952 17.34080505 102.74525452 C18.4287738 102.78392639 19.51674255 102.82259827 20.63768005 102.86244202 C23.33021671 102.95691699 26.02274262 103.04247882 28.71580505 103.12025452 C28.71580505 104.77025452 28.71580505 106.42025452 28.71580505 108.12025452 C18.15580505 108.12025452 7.59580505 108.12025452 -3.28419495 108.12025452 C-3.30674323 94.18645832 -3.32510844 80.25267414 -3.33600712 66.31886387 C-3.34123663 59.84957771 -3.34833551 53.38030463 -3.3596344 46.911026 C-3.37046087 40.67355152 -3.37647127 34.43608964 -3.37907219 28.19860649 C-3.38092687 25.81305174 -3.38454831 23.42749773 -3.389925 21.04194832 C-3.39713224 17.7132986 -3.39818602 14.38470173 -3.39772034 11.05604553 C-3.40131561 10.05911179 -3.40491089 9.06217804 -3.40861511 8.03503418 C-3.40724045 7.13334503 -3.40586578 6.23165588 -3.40444946 5.30264282 C-3.40537126 4.51450982 -3.40629305 3.72637682 -3.40724277 2.914361 C-3.21873263 0.16577722 -2.74646042 0.1445911 0 0 Z " fill="#3B5D4E" transform="translate(80.28419494628906,32.87974548339844)"/>
<path d="M0 0 C0.64604187 -0.00700928 1.29208374 -0.01401855 1.95770264 -0.02124023 C4.08755834 -0.03880645 6.21607868 -0.02720288 8.34594727 -0.01367188 C9.83041132 -0.01636756 11.31487365 -0.02025062 12.79933167 -0.02526855 C15.90887277 -0.03116195 19.01795384 -0.02260766 22.12744141 -0.00390625 C26.10676749 0.01886412 30.08501328 0.00577258 34.06429958 -0.01819611 C37.12962427 -0.03267583 40.19469443 -0.02803797 43.26002693 -0.01768494 C44.72679841 -0.01502259 46.19359324 -0.01827013 47.66033745 -0.02760315 C49.71428139 -0.03780337 51.76649678 -0.02222274 53.8203125 0 C54.98739243 0.00318237 56.15447235 0.00636475 57.35691833 0.00964355 C61.26393294 0.64612497 62.8781548 1.52356377 65.47485352 4.51757812 C65.94269736 7.25583952 66.08858942 9.36754741 66.00732422 12.09667969 C66.00495758 12.85494553 66.00259094 13.61321136 66.00015259 14.39445496 C65.99229191 16.03854178 65.97320141 17.68260475 65.94417763 19.32645416 C65.90020226 21.93384729 65.88990222 24.53941348 65.88896179 27.14715576 C65.88019023 34.55907102 65.81046898 41.97003387 65.71875 49.38134766 C65.66493526 53.91850077 65.65022723 58.45449312 65.65834618 62.99193573 C65.65324038 64.71591256 65.63288419 66.43991739 65.59664345 68.16352081 C65.13825874 77.60159779 65.13825874 77.60159779 68.18832397 86.26306152 C70.17922177 88.25897634 72.20538674 89.85569637 74.47485352 91.51757812 C75.67391401 92.82185678 76.84543815 94.15254705 77.97485352 95.51757812 C81.03621563 99.09972367 84.33182373 102.3467743 87.77563477 105.56054688 C91.4825515 109.82989236 91.9012647 114.23104184 91.80297852 119.67773438 C91.14003131 125.41538456 89.64154126 132.35089038 85.47485352 136.51757812 C85.07721089 138.50579126 84.73710003 140.50702152 84.47485352 142.51757812 C83.81485352 142.51757812 83.15485352 142.51757812 82.47485352 142.51757812 C82.35110352 143.23945313 82.22735352 143.96132812 82.09985352 144.70507812 C81.48436042 147.47479707 80.59040977 149.91461352 79.47485352 152.51757812 C78.48485352 152.51757812 77.49485352 152.51757812 76.47485352 152.51757812 C76.97706741 147.49543919 78.11586183 143.95248249 80.47485352 139.51757812 C80.78422852 138.56882813 81.09360352 137.62007812 81.41235352 136.64257812 C82.28718977 134.06953031 83.22897788 132.11135894 84.53735352 129.76757812 C87.66672056 123.70661073 87.52235907 117.20398508 87.47485352 110.51757812 C86.81485352 110.51757812 86.15485352 110.51757812 85.47485352 110.51757812 C85.08297852 109.83695312 84.69110352 109.15632813 84.28735352 108.45507812 C82.31128906 105.2524909 80.07110812 103.02264613 77.38110352 100.42382812 C74.77823477 97.82095938 72.42087142 95.03281905 70.05297852 92.21679688 C68.38750376 90.29165295 68.38750376 90.29165295 65.47485352 88.51757812 C65.48532715 89.50153564 65.49580078 90.48549316 65.5065918 91.49926758 C65.54279383 95.15010947 65.56575467 98.80093549 65.5847168 102.4519043 C65.59477393 104.03200956 65.60842136 105.61209623 65.62573242 107.19213867 C65.64999373 109.46342562 65.66133934 111.73446649 65.67016602 114.00585938 C65.68048859 114.71221024 65.69081116 115.4185611 65.70144653 116.14631653 C65.70229126 119.83955604 65.58205874 121.35677028 63.47485352 124.51757812 C62.81485352 124.51757812 62.15485352 124.51757812 61.47485352 124.51757812 C61.47485352 125.17757812 61.47485352 125.83757812 61.47485352 126.51757812 C53.31860352 127.14498197 53.31860352 127.14498197 50.03735352 124.70507812 C47.47671822 121.12018871 46.22343933 119.25359176 46.27954102 114.84960938 C46.28598633 113.95693359 46.29243164 113.06425781 46.29907227 112.14453125 C46.32420898 110.75137695 46.32420898 110.75137695 46.34985352 109.33007812 C46.35887695 108.38970703 46.36790039 107.44933594 46.37719727 106.48046875 C46.40076295 104.15924845 46.43366235 101.83854169 46.47485352 99.51757812 C44.98985352 99.02257812 44.98985352 99.02257812 43.47485352 98.51757812 C44.13485352 98.18757813 44.79485352 97.85757813 45.47485352 97.51757812 C45.80485352 96.85757813 46.13485352 96.19757813 46.47485352 95.51757812 C48.45922852 96.93945312 48.45922852 96.93945312 50.47485352 99.51757812 C50.98112741 102.61213985 50.85181754 105.64230987 50.72485352 108.76757812 C50.70680664 109.60804688 50.68875977 110.44851562 50.67016602 111.31445312 C50.62316149 113.38265207 50.55142076 115.45026253 50.47485352 117.51757812 C52.45485352 117.51757812 54.43485352 117.51757812 56.47485352 117.51757812 C56.47485352 81.87757812 56.47485352 46.23757812 56.47485352 9.51757812 C28.25985352 10.01257813 28.25985352 10.01257813 -0.52514648 10.51757812 C-0.85514648 45.82757813 -1.18514648 81.13757813 -1.52514648 117.51757812 C9.03485352 117.51757812 19.59485352 117.51757812 30.47485352 117.51757812 C30.47485352 117.84757812 30.47485352 118.17757812 30.47485352 118.51757812 C19.58485352 118.51757812 8.69485352 118.51757812 -2.52514648 118.51757812 C-2.52514648 119.17757812 -2.52514648 119.83757812 -2.52514648 120.51757812 C-3.18514648 120.51757812 -3.84514648 120.51757812 -4.52514648 120.51757812 C-4.52514648 83.22757813 -4.52514648 45.93757813 -4.52514648 7.51757812 C16.59485352 7.51757812 37.71485352 7.51757812 59.47485352 7.51757812 C59.47485352 44.80757812 59.47485352 82.09757812 59.47485352 120.51757812 C56.83485352 120.51757812 54.19485352 120.51757812 51.47485352 120.51757812 C51.80485352 121.17757812 52.13485352 121.83757812 52.47485352 122.51757812 C55.89141375 122.68435095 55.89141375 122.68435095 59.47485352 122.51757812 C61.94472094 120.0477107 61.72575658 119.36083696 61.7288208 115.96264648 C61.73446045 115.00357391 61.7401001 114.04450134 61.74591064 113.05636597 C61.74186218 112.00071442 61.73781372 110.94506287 61.73364258 109.85742188 C61.73714722 108.74843536 61.74065186 107.63944885 61.7442627 106.49685669 C61.75309446 102.81620092 61.74722568 99.13573599 61.74047852 95.45507812 C61.74182475 92.90681928 61.74376493 90.35856069 61.74627686 87.81030273 C61.74923008 82.4636772 61.74511369 77.11712062 61.7355957 71.77050781 C61.72471084 65.58453541 61.72823632 59.39869484 61.73924851 53.21272564 C61.74940887 47.26787401 61.74834515 41.32306343 61.74248505 35.37820435 C61.74114706 32.84555035 61.74280145 30.31289301 61.74744415 27.78024292 C61.7525005 24.24598161 61.74481155 20.71197651 61.73364258 17.17773438 C61.73769104 16.12208282 61.7417395 15.06643127 61.74591064 13.97879028 C61.740271 13.01971771 61.73463135 12.06064514 61.7288208 11.07250977 C61.72806675 10.23627579 61.7273127 9.40004181 61.7265358 8.53846741 C61.65659867 6.28979141 61.65659867 6.28979141 59.47485352 4.51757812 C56.70395625 4.20315053 56.70395625 4.20315053 53.42041016 4.24291992 C52.14891617 4.23338791 50.87742218 4.2238559 49.56739807 4.21403503 C48.17326836 4.21429646 46.77913863 4.21523347 45.38500977 4.21679688 C43.96015803 4.21291125 42.53530744 4.20857686 41.11045837 4.20381165 C38.12194059 4.19634358 35.13354093 4.19664478 32.14501953 4.2019043 C28.31359677 4.20769824 24.48265753 4.19077315 20.65131474 4.16755962 C17.70793323 4.15283309 14.76466845 4.1519491 11.82125664 4.15506935 C10.40864543 4.15455554 8.99602778 4.14930652 7.58345222 4.13925743 C5.60856939 4.12693342 3.63358911 4.13561297 1.65869141 4.14526367 C0.53443253 4.14463425 -0.58982635 4.14400482 -1.74815369 4.14335632 C-4.93318665 4.57256477 -5.58193538 5.05520425 -7.52514648 7.51757812 C-7.82986052 10.44350895 -7.95228548 13.16011697 -7.94165039 16.08813477 C-7.95023575 16.96318161 -7.95882111 17.83822845 -7.96766663 18.73979187 C-7.99278652 21.63585389 -7.99711069 24.53157326 -8.00170898 27.42773438 C-8.01601313 29.43648837 -8.03176907 31.44523252 -8.04891968 33.45396423 C-8.0908294 38.74514814 -8.11578917 44.03627098 -8.13641357 49.32757568 C-8.17219158 57.8012392 -8.23310971 66.27475206 -8.2949028 74.74825859 C-8.31404084 77.71417578 -8.32573719 80.68005274 -8.33633423 83.64601135 C-8.34654288 85.45614713 -8.35690051 87.26628208 -8.36743164 89.07641602 C-8.36899513 90.32091019 -8.36899513 90.32091019 -8.37059021 91.59054565 C-8.41172501 97.29073518 -8.41172501 97.29073518 -9.52514648 99.51757812 C-10.51514648 99.51757812 -11.50514648 99.51757812 -12.52514648 99.51757812 C-12.03014648 98.03257813 -12.03014648 98.03257813 -11.52514648 96.51757812 C-11.30188834 94.45864192 -11.1180889 92.39524159 -10.96264648 90.33007812 C-10.87885742 89.24339844 -10.79506836 88.15671875 -10.70874023 87.03710938 C-10.6481543 86.20566406 -10.58756836 85.37421875 -10.52514648 84.51757812 C-11.84514648 84.51757812 -13.16514648 84.51757812 -14.52514648 84.51757812 C-16.83229726 75.73076986 -18.94217834 66.91628918 -20.77514648 58.01757812 C-20.95013672 57.19418945 -21.12512695 56.37080078 -21.30541992 55.52246094 C-22.33253366 50.4199583 -22.69226669 45.72217894 -22.52514648 40.51757812 C-21.53514648 40.51757812 -20.54514648 40.51757812 -19.52514648 40.51757812 C-17.8682397 46.55345285 -16.85999597 52.56187355 -15.98999023 58.75976562 C-15.67165818 61.46816275 -15.67165818 61.46816275 -14.52514648 63.51757812 C-14.1319957 66.39303133 -13.77865623 69.25869659 -13.46264648 72.14257812 C-13.37176758 72.944375 -13.28088867 73.74617188 -13.18725586 74.57226562 C-12.96316995 76.55365681 -12.74371899 78.53557117 -12.52514648 80.51757812 C-11.86514648 80.51757812 -11.20514648 80.51757812 -10.52514648 80.51757812 C-10.52514648 62.69757813 -10.52514648 44.87757812 -10.52514648 26.51757812 C-13.52336399 25.76802375 -16.49451161 25.10686824 -19.52514648 24.51757812 C-20.84514648 26.16757812 -22.16514648 27.81757812 -23.52514648 29.51757812 C-24.04077148 29.37320313 -24.55639648 29.22882812 -25.08764648 29.08007812 C-28.2102422 28.35947911 -31.3506534 27.94491373 -34.52514648 27.51757812 C-35.51514648 29.99257813 -35.51514648 29.99257813 -36.52514648 32.51757812 C-41.27514648 31.64257812 -41.27514648 31.64257812 -43.52514648 30.51757812 C-43.52514648 33.48757812 -43.52514648 36.45757812 -43.52514648 39.51757812 C-44.18514648 39.51757812 -44.84514648 39.51757812 -45.52514648 39.51757812 C-46.99184762 34.29245533 -47.75092051 29.93615472 -47.52514648 24.51757812 C-43.85633494 25.22311881 -40.82064114 26.79493319 -37.52514648 28.51757812 C-36.31886641 26.18543665 -35.35967269 24.02115674 -34.52514648 21.51757812 C-33.20514648 21.51757812 -31.88514648 21.51757812 -30.52514648 21.51757812 C-30.52514648 22.17757812 -30.52514648 22.83757813 -30.52514648 23.51757812 C-28.21514648 24.17757812 -25.90514648 24.83757813 -23.52514648 25.51757812 C-23.30858398 24.58945312 -23.30858398 24.58945312 -23.08764648 23.64257812 C-22.52514648 21.51757812 -22.52514648 21.51757812 -21.52514648 19.51757812 C-16.67665985 18.94716793 -14.40603551 20.7869803 -10.52514648 23.51757812 C-10.54609375 22.96295898 -10.56704102 22.40833984 -10.58862305 21.83691406 C-10.67198196 19.3139879 -10.72386516 16.79135164 -10.77514648 14.26757812 C-10.80866211 13.39488281 -10.84217773 12.5221875 -10.87670898 11.62304688 C-10.88959961 10.77871094 -10.90249023 9.934375 -10.91577148 9.06445312 C-10.93671875 8.2894043 -10.95766602 7.51435547 -10.97924805 6.71582031 C-9.75325243 0.78094689 -5.36349021 0.01463505 0 0 Z " fill="#D4DBD8" transform="translate(78.525146484375,23.482421875)"/>
<path d="M0 0 C3.52069985 0.58678331 5.71299843 1.35649921 9 3 C9 20.82 9 38.64 9 57 C8.34 57 7.68 57 7 57 C5.8461854 52.76934647 4.9079435 48.74370399 4.5 44.375 C4.24532295 41.74333718 3.90604303 39.71812909 3.0625 37.1875 C0.91040736 30.73122209 -0.17484469 23.80645389 0 17 C-0.99 17 -1.98 17 -3 17 C-0.12951531 34.09362077 -0.12951531 34.09362077 3.38671875 51.0625 C4.0751652 54.36002697 4.553527 57.66188408 5 61 C6.32 61 7.64 61 9 61 C9 64.96 9 68.92 9 73 C5.38863788 74.80568106 4.455469 75.24851563 0.75 75.125 C-0.4875 75.08375 -1.725 75.0425 -3 75 C-3 75.99 -3 76.98 -3 78 C2.94 77.505 2.94 77.505 9 77 C9 80.63 9 84.26 9 88 C-1.93365148 90.33251232 -1.93365148 90.33251232 -6 90 C-8.61509191 87.38490809 -8.65744789 85.48639521 -9.046875 81.91015625 C-9 80 -9 80 -7.5625 78 C-6.7890625 77.505 -6.7890625 77.505 -6 77 C-7.65 76.67 -9.3 76.34 -11 76 C-11.29003906 74.42412109 -11.29003906 74.42412109 -11.5859375 72.81640625 C-13.19312624 64.00653826 -13.19312624 64.00653826 -15.0625 55.25 C-15.78002639 52.13686133 -16.32399932 49.03216179 -16.8125 45.875 C-17.97059738 38.63689138 -19.60646082 31.50492426 -21.2355957 24.36083984 C-22.53214684 18.57138229 -23.45835205 12.90944001 -24 7 C-21.69 7.66 -19.38 8.32 -17 9 C-16.773125 8.195625 -16.54625 7.39125 -16.3125 6.5625 C-15 4 -15 4 -12.5625 3.0625 C-10 3 -10 3 -7 5 C-4.94285168 4.98617135 -4.94285168 4.98617135 -3 4 C-1.24577228 2.02329393 -1.24577228 2.02329393 0 0 Z " fill="#3B5D4D" transform="translate(59,47)"/>
<path d="M0 0 C1.27141846 -0.00953201 2.54283691 -0.01906403 3.8527832 -0.02888489 C5.2416995 -0.02862349 6.63061581 -0.02768656 8.01953125 -0.02612305 C9.44295375 -0.03000986 10.86637509 -0.0343445 12.28979492 -0.03910828 C15.27233644 -0.046569 18.25475958 -0.04628002 21.23730469 -0.04101562 C25.06085176 -0.03521651 28.88391513 -0.0521628 32.7073822 -0.0753603 C35.64647254 -0.0900848 38.58544597 -0.0909712 41.52456665 -0.08785057 C42.93438679 -0.08836428 44.3442134 -0.09361143 45.7539978 -0.10366249 C47.72398184 -0.1159853 49.69406356 -0.10730745 51.6640625 -0.09765625 C52.78530518 -0.09828568 53.90654785 -0.0989151 55.06176758 -0.0995636 C58.25437605 0.33171076 58.9172027 0.76762968 60.83203125 3.2746582 C61.20955467 5.415802 61.20955467 5.415802 61.21298218 7.94311523 C61.22144165 8.90211731 61.22990112 9.86111938 61.23861694 10.84918213 C61.23254425 11.89966736 61.22647156 12.95015259 61.22021484 14.0324707 C61.2254718 15.13999695 61.23072876 16.24752319 61.23614502 17.38861084 C61.24937699 21.05910232 61.24059531 24.72916211 61.23046875 28.3996582 C61.23248856 30.94409265 61.23539921 33.48852653 61.23916626 36.03295898 C61.24359397 41.36944618 61.23742915 46.70577784 61.22314453 52.04223633 C61.20681764 58.2129292 61.21210608 64.38332472 61.22862375 70.55401039 C61.24387428 76.4887299 61.24226496 82.42335695 61.23347855 88.35809326 C61.23147318 90.8843388 61.23394755 93.41059189 61.24091721 95.93682861 C61.24851146 99.46370731 61.23695524 102.99001005 61.22021484 106.5168457 C61.22628754 107.56733093 61.23236023 108.61781616 61.23861694 109.70013428 C61.23015747 110.65913635 61.221698 111.61813843 61.21298218 112.60620117 C61.2118511 113.44021454 61.21072002 114.27422791 61.20955467 115.1335144 C60.73764181 117.80999283 60.02975296 118.70370084 57.83203125 120.2746582 C54.14453125 120.4621582 54.14453125 120.4621582 50.83203125 120.2746582 C50.50203125 119.2846582 50.17203125 118.2946582 49.83203125 117.2746582 C52.47203125 117.2746582 55.11203125 117.2746582 57.83203125 117.2746582 C57.83203125 79.9846582 57.83203125 42.6946582 57.83203125 4.2746582 C36.71203125 4.2746582 15.59203125 4.2746582 -6.16796875 4.2746582 C-6.16796875 41.5646582 -6.16796875 78.8546582 -6.16796875 117.2746582 C5.38203125 117.2746582 16.93203125 117.2746582 28.83203125 117.2746582 C28.83203125 118.5946582 28.83203125 119.9146582 28.83203125 121.2746582 C24.06318558 121.34890963 19.29467765 121.40330756 14.52539062 121.43945312 C12.90358619 121.45452385 11.28182241 121.47498413 9.66015625 121.50097656 C7.32672079 121.53743649 4.99382494 121.55440135 2.66015625 121.56762695 C1.9370929 121.58311081 1.21402954 121.59859467 0.46905518 121.61454773 C-3.78287395 121.61596374 -6.11516625 121.27305861 -9.16796875 118.2746582 C-9.66854 116.09948635 -9.66854 116.09948635 -9.66917419 113.52354431 C-9.67900833 112.54626877 -9.68884247 111.56899323 -9.69897461 110.56210327 C-9.68930664 109.49134552 -9.67963867 108.42058777 -9.66967773 107.31738281 C-9.67508072 106.18874313 -9.6804837 105.06010345 -9.68605042 103.89726257 C-9.69858447 100.15691109 -9.68201574 96.41732224 -9.6640625 92.67700195 C-9.66421737 90.08533182 -9.6657043 87.49366145 -9.66847229 84.9019928 C-9.66985835 79.46710127 -9.65769447 74.03249259 -9.63452148 68.59765625 C-9.60789788 62.30991872 -9.6061686 56.02255008 -9.61790985 49.73477548 C-9.62867937 43.69003084 -9.6224078 37.64545565 -9.60835457 31.60070992 C-9.60382586 29.02619377 -9.60351557 26.45166675 -9.60741997 23.87714958 C-9.61031718 20.28538324 -9.59389649 16.69422832 -9.57202148 13.10253906 C-9.57652313 12.02975708 -9.58102478 10.9569751 -9.58566284 9.85168457 C-9.57575821 8.87722885 -9.56585358 7.90277313 -9.5556488 6.89878845 C-9.55321891 6.0491046 -9.55078901 5.19942076 -9.54828548 4.32398891 C-9.42278096 3.64770978 -9.29727644 2.97143064 -9.16796875 2.2746582 C-5.64374041 -0.07482736 -4.17369582 0.01715048 0 0 Z " fill="#486859" transform="translate(80.16796875,26.725341796875)"/>
<path d="M0 0 C0.64604187 -0.00700928 1.29208374 -0.01401855 1.95770264 -0.02124023 C4.08755834 -0.03880645 6.21607868 -0.02720288 8.34594727 -0.01367188 C9.83041132 -0.01636756 11.31487365 -0.02025062 12.79933167 -0.02526855 C15.90887277 -0.03116195 19.01795384 -0.02260766 22.12744141 -0.00390625 C26.10676749 0.01886412 30.08501328 0.00577258 34.06429958 -0.01819611 C37.12962427 -0.03267583 40.19469443 -0.02803797 43.26002693 -0.01768494 C44.72679841 -0.01502259 46.19359324 -0.01827013 47.66033745 -0.02760315 C49.71428139 -0.03780337 51.76649678 -0.02222274 53.8203125 0 C54.98739243 0.00318237 56.15447235 0.00636475 57.35691833 0.00964355 C61.26525018 0.64633955 62.87700202 1.52264667 65.47485352 4.51757812 C65.95485447 7.26551505 66.11140158 9.39062914 66.04248047 12.13183594 C66.0432106 12.89319855 66.04394073 13.65456116 66.04469299 14.43899536 C66.04121531 16.95029473 66.00234894 19.4597287 65.96313477 21.97070312 C65.9538072 23.71375515 65.94669082 25.45682031 65.94169617 27.19989014 C65.92262172 31.78365382 65.8735175 36.36662306 65.81817627 40.95007324 C65.76699317 45.62871554 65.74418416 50.30748645 65.71899414 54.98632812 C65.66539885 64.16376017 65.58008092 73.34060304 65.47485352 82.51757812 C65.14485352 82.51757812 64.81485352 82.51757812 64.47485352 82.51757812 C64.47485352 57.10757813 64.47485352 31.69757812 64.47485352 5.51757812 C63.48485352 5.84757812 62.49485352 6.17757813 61.47485352 6.51757812 C60.48485352 5.52757812 60.48485352 5.52757812 59.47485352 4.51757812 C56.70395625 4.20315053 56.70395625 4.20315053 53.42041016 4.24291992 C52.14891617 4.23338791 50.87742218 4.2238559 49.56739807 4.21403503 C48.17326836 4.21429646 46.77913863 4.21523347 45.38500977 4.21679688 C43.96015803 4.21291125 42.53530744 4.20857686 41.11045837 4.20381165 C38.12194059 4.19634358 35.13354093 4.19664478 32.14501953 4.2019043 C28.31359677 4.20769824 24.48265753 4.19077315 20.65131474 4.16755962 C17.70793323 4.15283309 14.76466845 4.1519491 11.82125664 4.15506935 C10.40864543 4.15455554 8.99602778 4.14930652 7.58345222 4.13925743 C5.60856939 4.12693342 3.63358911 4.13561297 1.65869141 4.14526367 C0.53443253 4.14463425 -0.58982635 4.14400482 -1.74815369 4.14335632 C-4.93318665 4.57256477 -5.58193538 5.05520425 -7.52514648 7.51757812 C-7.82986052 10.44350895 -7.95228548 13.16011697 -7.94165039 16.08813477 C-7.95023575 16.96318161 -7.95882111 17.83822845 -7.96766663 18.73979187 C-7.99278652 21.63585389 -7.99711069 24.53157326 -8.00170898 27.42773438 C-8.01601313 29.43648837 -8.03176907 31.44523252 -8.04891968 33.45396423 C-8.0908294 38.74514814 -8.11578917 44.03627098 -8.13641357 49.32757568 C-8.17219158 57.8012392 -8.23310971 66.27475206 -8.2949028 74.74825859 C-8.31404084 77.71417578 -8.32573719 80.68005274 -8.33633423 83.64601135 C-8.34654288 85.45614713 -8.35690051 87.26628208 -8.36743164 89.07641602 C-8.36899513 90.32091019 -8.36899513 90.32091019 -8.37059021 91.59054565 C-8.41172501 97.29073518 -8.41172501 97.29073518 -9.52514648 99.51757812 C-10.51514648 99.51757812 -11.50514648 99.51757812 -12.52514648 99.51757812 C-12.03014648 98.03257813 -12.03014648 98.03257813 -11.52514648 96.51757812 C-11.30188834 94.45864192 -11.1180889 92.39524159 -10.96264648 90.33007812 C-10.87885742 89.24339844 -10.79506836 88.15671875 -10.70874023 87.03710938 C-10.6481543 86.20566406 -10.58756836 85.37421875 -10.52514648 84.51757812 C-11.84514648 84.51757812 -13.16514648 84.51757812 -14.52514648 84.51757812 C-16.83229726 75.73076986 -18.94217834 66.91628918 -20.77514648 58.01757812 C-20.95013672 57.19418945 -21.12512695 56.37080078 -21.30541992 55.52246094 C-22.33253366 50.4199583 -22.69226669 45.72217894 -22.52514648 40.51757812 C-21.53514648 40.51757812 -20.54514648 40.51757812 -19.52514648 40.51757812 C-17.8682397 46.55345285 -16.85999597 52.56187355 -15.98999023 58.75976562 C-15.67165818 61.46816275 -15.67165818 61.46816275 -14.52514648 63.51757812 C-14.1319957 66.39303133 -13.77865623 69.25869659 -13.46264648 72.14257812 C-13.37176758 72.944375 -13.28088867 73.74617188 -13.18725586 74.57226562 C-12.96316995 76.55365681 -12.74371899 78.53557117 -12.52514648 80.51757812 C-11.86514648 80.51757812 -11.20514648 80.51757812 -10.52514648 80.51757812 C-10.52514648 62.69757813 -10.52514648 44.87757812 -10.52514648 26.51757812 C-13.52336399 25.76802375 -16.49451161 25.10686824 -19.52514648 24.51757812 C-20.84514648 26.16757812 -22.16514648 27.81757812 -23.52514648 29.51757812 C-24.04077148 29.37320313 -24.55639648 29.22882812 -25.08764648 29.08007812 C-28.2102422 28.35947911 -31.3506534 27.94491373 -34.52514648 27.51757812 C-35.51514648 29.99257813 -35.51514648 29.99257813 -36.52514648 32.51757812 C-41.27514648 31.64257812 -41.27514648 31.64257812 -43.52514648 30.51757812 C-43.52514648 33.48757812 -43.52514648 36.45757812 -43.52514648 39.51757812 C-44.18514648 39.51757812 -44.84514648 39.51757812 -45.52514648 39.51757812 C-46.99184762 34.29245533 -47.75092051 29.93615472 -47.52514648 24.51757812 C-43.85633494 25.22311881 -40.82064114 26.79493319 -37.52514648 28.51757812 C-36.31886641 26.18543665 -35.35967269 24.02115674 -34.52514648 21.51757812 C-33.20514648 21.51757812 -31.88514648 21.51757812 -30.52514648 21.51757812 C-30.52514648 22.17757812 -30.52514648 22.83757813 -30.52514648 23.51757812 C-28.21514648 24.17757812 -25.90514648 24.83757813 -23.52514648 25.51757812 C-23.30858398 24.58945312 -23.30858398 24.58945312 -23.08764648 23.64257812 C-22.52514648 21.51757812 -22.52514648 21.51757812 -21.52514648 19.51757812 C-16.67665985 18.94716793 -14.40603551 20.7869803 -10.52514648 23.51757812 C-10.54609375 22.96295898 -10.56704102 22.40833984 -10.58862305 21.83691406 C-10.67198196 19.3139879 -10.72386516 16.79135164 -10.77514648 14.26757812 C-10.80866211 13.39488281 -10.84217773 12.5221875 -10.87670898 11.62304688 C-10.88959961 10.77871094 -10.90249023 9.934375 -10.91577148 9.06445312 C-10.93671875 8.2894043 -10.95766602 7.51435547 -10.97924805 6.71582031 C-9.75325243 0.78094689 -5.36349021 0.01463505 0 0 Z " fill="#EDEFEE" transform="translate(78.525146484375,23.482421875)"/>
<path d="M0 0 C20.79 0 41.58 0 63 0 C63 36.96 63 73.92 63 112 C60.69 112 58.38 112 56 112 C56 111.67 56 111.34 56 111 C57.98 111 59.96 111 62 111 C61.67 75.36 61.34 39.72 61 3 C42.19 3 23.38 3 4 3 C3.67 38.31 3.34 73.62 3 110 C13.56 110 24.12 110 35 110 C35 110.33 35 110.66 35 111 C24.11 111 13.22 111 2 111 C2 111.66 2 112.32 2 113 C1.34 113 0.68 113 0 113 C0 75.71 0 38.42 0 0 Z " fill="#D1D9D5" transform="translate(74,31)"/>
<path d="M0 0 C0.33 0 0.66 0 1 0 C1.00238835 0.5847601 1.00477671 1.16952021 1.00723743 1.77200031 C1.06634555 15.99339302 1.14186852 30.21461906 1.23571491 44.4358263 C1.28070137 51.31307761 1.32010932 58.19027681 1.34643555 65.06762695 C1.37184245 71.70074072 1.41272779 78.33364108 1.46318626 84.96661949 C1.47991173 87.50120866 1.49139048 90.03583791 1.49761391 92.57047462 C1.50719319 96.11209173 1.5351789 99.65310921 1.56762695 103.19458008 C1.56619186 104.24977844 1.56475677 105.30497681 1.5632782 106.39215088 C1.57581635 107.35548843 1.58835449 108.31882599 1.60127258 109.31135559 C1.60588155 110.14926541 1.61049051 110.98717524 1.61523914 111.85047626 C2.08196878 114.4579308 2.98218159 115.34895306 5 117 C3.02 117.99 3.02 117.99 1 119 C-1.10633718 117.29171079 -1.93801608 116.47851584 -2.29296875 113.73828125 C-2.25816406 112.93777344 -2.22335938 112.13726562 -2.1875 111.3125 C-2.14689453 110.10013672 -2.14689453 110.10013672 -2.10546875 108.86328125 C-2.07066406 108.24839844 -2.03585938 107.63351563 -2 107 C-2.56847656 107.144375 -3.13695312 107.28875 -3.72265625 107.4375 C-8.53984124 108.59555449 -13.02168662 109.58568393 -18 109 C-21.91764067 105.96531244 -22.93757061 102.89641765 -24.1875 98.1875 C-24.51105469 97.00542969 -24.83460937 95.82335937 -25.16796875 94.60546875 C-26.62113442 88.30841752 -27.11271183 82.42457417 -27 76 C-27.66 76 -28.32 76 -29 76 C-29.10546143 75.37134033 -29.21092285 74.74268066 -29.31958008 74.0949707 C-31.67499227 59.75652185 -31.67499227 59.75652185 -34.75 45.5625 C-36.47258223 38.43812459 -36.19916723 32.19500337 -35 25 C-34.67 25 -34.34 25 -34 25 C-33.85900879 25.78648926 -33.71801758 26.57297852 -33.57275391 27.38330078 C-32.92806918 30.96470657 -32.27660255 34.54484666 -31.625 38.125 C-31.40328125 39.3625 -31.1815625 40.6 -30.953125 41.875 C-30.73398437 43.07382813 -30.51484375 44.27265625 -30.2890625 45.5078125 C-30.09006348 46.60754395 -29.89106445 47.70727539 -29.68603516 48.84033203 C-29.00132021 51.99391951 -28.03429637 54.94642621 -27 58 C-26.63805106 60.38886303 -26.32820569 62.78602668 -26.0625 65.1875 C-25.39317171 70.81414906 -24.27401992 76.11530147 -22.6640625 81.546875 C-21.7240767 85.01929312 -21.33746702 88.42284959 -21 92 C-19.68 92.33 -18.36 92.66 -17 93 C-17.33 93.99 -17.66 94.98 -18 96 C-18.66 96 -19.32 96 -20 96 C-19.01 98.97 -18.02 101.94 -17 105 C-12.05 104.67 -7.1 104.34 -2 104 C-2 100.37 -2 96.74 -2 93 C-7.94 93.495 -7.94 93.495 -14 94 C-14 93.01 -14 92.02 -14 91 C-6.375 90 -6.375 90 -3 90 C-3.33 90.66 -3.66 91.32 -4 92 C-3.01 92 -2.02 92 -1 92 C-0.67 61.64 -0.34 31.28 0 0 Z " fill="#C2CCC7" transform="translate(70,31)"/>
<path d="M0 0 C3.49406769 1.66762322 4.82670681 2.74006022 7 6 C7.22216068 8.67169858 7.32452645 11.20512871 7.3125 13.875 C7.32861328 14.58269531 7.34472656 15.29039063 7.36132812 16.01953125 C7.36553722 20.5401003 6.81139058 23.43144334 4 27 C1.00261059 28.99825961 0.36652492 29.27550398 -3 29.25 C-4.0209375 29.25773437 -4.0209375 29.25773437 -5.0625 29.265625 C-7 29 -7 29 -10 27 C-10 26.34 -10 25.68 -10 25 C-10.66 25 -11.32 25 -12 25 C-13.56424629 21.87150741 -13.18446398 18.55569916 -13.1875 15.125 C-13.19974609 14.40441406 -13.21199219 13.68382812 -13.22460938 12.94140625 C-13.23507769 9.15187749 -13.22472449 6.15618353 -11 3 C-7.31959072 0.13745945 -4.62373012 -0.57796627 0 0 Z " fill="#E8ECEB" transform="translate(121,47)"/>
<path d="M0 0 C0.33 0 0.66 0 1 0 C1 37.29 1 74.58 1 113 C-1.64 113 -4.28 113 -7 113 C-6.67 113.66 -6.34 114.32 -6 115 C-5.236875 115.144375 -4.47375 115.28875 -3.6875 115.4375 C-0.73890802 116.05464716 0.73296884 117.06882531 3 119 C-5.15625 119.62740385 -5.15625 119.62740385 -8.4375 117.1875 C-10.9981353 113.60261058 -12.25141419 111.73601364 -12.1953125 107.33203125 C-12.18886719 106.43935547 -12.18242188 105.54667969 -12.17578125 104.62695312 C-12.15902344 103.69818359 -12.14226562 102.76941406 -12.125 101.8125 C-12.11597656 100.87212891 -12.10695313 99.93175781 -12.09765625 98.96289062 C-12.07409056 96.64167032 -12.04119116 94.32096356 -12 92 C-12.99 91.67 -13.98 91.34 -15 91 C-14.01 90.505 -14.01 90.505 -13 90 C-12.505 89.01 -12.505 89.01 -12 88 C-10.015625 89.421875 -10.015625 89.421875 -8 92 C-7.49372611 95.09456173 -7.62303598 98.12473175 -7.75 101.25 C-7.76804688 102.09046875 -7.78609375 102.9309375 -7.8046875 103.796875 C-7.85169202 105.86507395 -7.92343276 107.93268441 -8 110 C-6.02 110 -4.04 110 -2 110 C-2 74.69 -2 39.38 -2 3 C-1.67 3 -1.34 3 -1 3 C-1.00138269 3.83352194 -1.00138269 3.83352194 -1.00279331 4.68388271 C-1.02484982 18.1867655 -1.04134841 31.68964515 -1.05181217 45.19254208 C-1.0570417 51.72236233 -1.06414061 58.25216963 -1.07543945 64.78198242 C-1.08626585 71.07781159 -1.09227631 77.37362826 -1.09487724 83.66946602 C-1.09673194 86.07734944 -1.1003534 88.48523214 -1.10573006 90.89311028 C-1.1129372 94.25289286 -1.11399108 97.6126231 -1.11352539 100.97241211 C-1.11712067 101.97869659 -1.12071594 102.98498108 -1.12442017 104.02175903 C-1.1230455 104.93186234 -1.12167084 105.84196564 -1.12025452 106.77964783 C-1.12163721 107.97290884 -1.12163721 107.97290884 -1.12304783 109.19027615 C-1.19778133 111.02138889 -1.19778133 111.02138889 0 112 C0 75.04 0 38.08 0 0 Z " fill="#CBD3CF" transform="translate(137,31)"/>
<path d="M0 0 C0.33 0 0.66 0 1 0 C1.33 37.29 1.66 74.58 2 113 C13.55 113 25.1 113 37 113 C37 114.32 37 115.64 37 117 C32.23115433 117.07425143 27.4626464 117.12864936 22.69335938 117.16479492 C21.07155494 117.17986565 19.44979116 117.20032593 17.828125 117.22631836 C15.49468954 117.26277829 13.16179369 117.27974314 10.828125 117.29296875 C10.10506165 117.30845261 9.38199829 117.32393646 8.63702393 117.33988953 C5.75973635 117.34084774 3.43321359 117.20157443 0.80592346 115.97909546 C-1.93339591 112.97709972 -1.53406913 109.85295464 -1.4699707 105.99389648 C-1.4721611 105.17690781 -1.4743515 104.35991913 -1.47660828 103.51817322 C-1.47892826 100.80207447 -1.45256619 98.0870495 -1.42578125 95.37109375 C-1.42085024 93.46468956 -1.41755599 91.5582805 -1.41581726 89.65187073 C-1.40815745 85.63584116 -1.38757234 81.62016539 -1.35668945 77.60424805 C-1.31772174 72.53574048 -1.29925169 67.46746403 -1.28926277 62.39882469 C-1.24691974 41.58312647 -1.08395928 20.79179043 0 0 Z " fill="#4B6A5C" transform="translate(72,31)"/>
<path d="M0 0 C1.9375 1.125 1.9375 1.125 3 3 C3.6875 6.1875 3.6875 6.1875 4 9 C2.68 9 1.36 9 0 9 C-0.66 7.68 -1.32 6.36 -2 5 C-3.66611905 4.957279 -5.33382885 4.95936168 -7 5 C-8.8855253 6.8855253 -8.13246689 9.57768831 -8.13671875 12.08203125 C-8.13285156 12.87996094 -8.12898438 13.67789063 -8.125 14.5 C-8.12886719 15.29792969 -8.13273437 16.09585938 -8.13671875 16.91796875 C-8.5089961 20.7683932 -8.5089961 20.7683932 -7 24 C-4.67182036 24.36760731 -2.3381615 24.70241581 0 25 C0 22.69 0 20.38 0 18 C-1.65 18 -3.3 18 -5 18 C-5 16.68 -5 15.36 -5 14 C-1.7 14 1.6 14 5 14 C5.10807131 15.93627769 5.1856225 17.87427756 5.25 19.8125 C5.29640625 20.89144531 5.3428125 21.97039062 5.390625 23.08203125 C5 26 5 26 3.29296875 27.8515625 C0.71137001 29.14456085 -1.05697511 29.49592392 -3.9375 29.5625 C-5.18853516 29.62630859 -5.18853516 29.62630859 -6.46484375 29.69140625 C-9.54187123 28.85221694 -11.10642049 27.41575831 -13.01635742 24.88305664 C-14.8604525 21.35277485 -14.7612304 17.84521103 -14.6875 13.9375 C-14.71521484 13.14794922 -14.74292969 12.35839844 -14.77148438 11.54492188 C-14.75806343 8.34268529 -14.72142003 5.96445614 -12.76293945 3.34619141 C-8.3548136 -0.57477556 -5.56318043 -0.72959743 0 0 Z " fill="#E8ECEA" transform="translate(99,47)"/>
<path d="M0 0 C20.13 0 40.26 0 61 0 C61 36.96 61 73.92 61 112 C58.69 112 56.38 112 54 112 C54 111.67 54 111.34 54 111 C55.98 111 57.96 111 60 111 C59.67 75.36 59.34 39.72 59 3 C29.795 2.505 29.795 2.505 0 2 C0 1.34 0 0.68 0 0 Z " fill="#F8F9F9" transform="translate(76,31)"/>
<path d="M0 0 C0.33 0 0.66 0 1 0 C1 22.77 1 45.54 1 69 C0.67 69 0.34 69 0 69 C0 65.04 0 61.08 0 57 C-1.32 57 -2.64 57 -4 57 C-6.30715077 48.21319174 -8.41703185 39.39871106 -10.25 30.5 C-10.42499023 29.67661133 -10.59998047 28.85322266 -10.78027344 28.00488281 C-11.80738717 22.90238018 -12.16712021 18.20460081 -12 13 C-11.01 13 -10.02 13 -9 13 C-7.34309321 19.03587473 -6.33484948 25.04429542 -5.46484375 31.2421875 C-5.14651169 33.95058463 -5.14651169 33.95058463 -4 36 C-3.60684921 38.8754532 -3.25350975 41.74111846 -2.9375 44.625 C-2.84662109 45.42679688 -2.75574219 46.22859375 -2.66210938 47.0546875 C-2.43802347 49.03607868 -2.2185725 51.01799305 -2 53 C-1.34 53 -0.68 53 0 53 C0 35.51 0 18.02 0 0 Z " fill="#C6D0CC" transform="translate(68,51)"/>
<path d="M0 0 C7.26 0 14.52 0 22 0 C22 3.3 22 6.6 22 10 C18.52078265 10.02683201 15.04176961 10.0467567 11.5625 10.0625 C10.07266602 10.07506836 10.07266602 10.07506836 8.55273438 10.08789062 C7.60849609 10.09111328 6.66425781 10.09433594 5.69140625 10.09765625 C4.81685791 10.10289307 3.94230957 10.10812988 3.04125977 10.11352539 C1 10 1 10 0 9 C0 6.03 0 3.06 0 0 Z " fill="#3B5E4E" transform="translate(87,123)"/>
<path d="M0 0 C2.47692108 2.47692108 2.25091864 3.18216434 2.25396729 6.59289551 C2.25960693 7.56038223 2.26524658 8.52786896 2.27105713 9.52467346 C2.26700867 10.58967575 2.26296021 11.65467804 2.25878906 12.75195312 C2.2622937 13.87069321 2.26579834 14.98943329 2.26940918 16.14207458 C2.27824113 19.85519542 2.2723721 23.56812709 2.265625 27.28125 C2.26697123 29.85192909 2.2689114 32.42260792 2.27142334 34.99328613 C2.27437659 40.38698986 2.27026009 45.78062195 2.26074219 51.17431641 C2.24985732 57.41481998 2.25338279 63.65519289 2.264395 69.8956933 C2.27455526 75.89287788 2.27349169 81.88999839 2.26763153 87.88719177 C2.26629352 90.44217446 2.26794799 92.99716046 2.27259064 95.55213928 C2.27764687 99.11753281 2.26995819 102.68267235 2.25878906 106.24804688 C2.26283752 107.31304916 2.26688599 108.37805145 2.27105713 109.47532654 C2.26541748 110.44281326 2.25977783 111.41029999 2.25396729 112.40710449 C2.25321323 113.25071281 2.25245918 114.09432114 2.25168228 114.96349335 C2 117 2 117 0 119 C-3.625 119.125 -3.625 119.125 -7 119 C-7.33 118.01 -7.66 117.02 -8 116 C-5.36 116 -2.72 116 0 116 C0 78.71 0 41.42 0 3 C-20.79 3 -41.58 3 -63 3 C-63 2.67 -63 2.34 -63 2 C-42.21 2 -21.42 2 0 2 C0 1.34 0 0.68 0 0 Z " fill="#6C8278" transform="translate(138,28)"/>
<path d="M0 0 C0.33 0 0.66 0 1 0 C1.14099121 0.78648926 1.28198242 1.57297852 1.42724609 2.38330078 C2.07193082 5.96470657 2.72339745 9.54484666 3.375 13.125 C3.59671875 14.3625 3.8184375 15.6 4.046875 16.875 C4.26601563 18.07382813 4.48515625 19.27265625 4.7109375 20.5078125 C4.90993652 21.60754395 5.10893555 22.70727539 5.31396484 23.84033203 C5.99867979 26.99391951 6.96570363 29.94642621 8 33 C8.36194894 35.38886303 8.67179431 37.78602668 8.9375 40.1875 C9.63801709 45.92722068 10.73020954 51.23396404 12.51171875 56.73046875 C13.04461068 59.20735042 12.81266182 60.62746381 12 63 C11.505 61.515 11.505 61.515 11 60 C11 63.3 11 66.6 11 70 C7.88408544 63.76817087 7.88031592 57.82199235 8 51 C7.34 51 6.68 51 6 51 C5.89453857 50.37134033 5.78907715 49.74268066 5.68041992 49.0949707 C3.32500773 34.75652185 3.32500773 34.75652185 0.25 20.5625 C-1.47258223 13.43812459 -1.19916723 7.19500337 0 0 Z " fill="#C7D0CC" transform="translate(35,56)"/>
<path d="M0 0 C5.875 0.875 5.875 0.875 7 2 C7.12663091 4.82416382 7.18520548 7.61294793 7.1875 10.4375 C7.19974609 11.22705078 7.21199219 12.01660156 7.22460938 12.83007812 C7.22987279 14.88807435 7.12206285 16.94562009 7 19 C5 21 5 21 2 21.25 C-1 21 -1 21 -3 19 C-3.2260745 16.49262823 -3.32436805 14.13153192 -3.3125 11.625 C-3.32861328 10.95210937 -3.34472656 10.27921875 -3.36132812 9.5859375 C-3.36542237 5.42618673 -2.9312065 3.01628109 0 0 Z " fill="#3F6151" transform="translate(116,51)"/>
<path d="M0 0 C4.81430721 -0.56638908 7.20307814 1.17438373 11 4 C10.67 4.99 10.34 5.98 10 7 C9.236875 6.67 8.47375 6.34 7.6875 6 C5.00930865 4.82563314 5.00930865 4.82563314 2 5 C-0.20142332 7.4390706 -0.20142332 7.4390706 -2 10 C-2.515625 9.855625 -3.03125 9.71125 -3.5625 9.5625 C-6.68509571 8.84190099 -9.82550692 8.42733561 -13 8 C-13.66 9.65 -14.32 11.3 -15 13 C-19.75 12.125 -19.75 12.125 -22 11 C-22 13.97 -22 16.94 -22 20 C-22.66 20 -23.32 20 -24 20 C-25.46670113 14.77487721 -26.22577402 10.4185766 -26 5 C-22.33118845 5.70554068 -19.29549466 7.27735506 -16 9 C-14.79371992 6.66785852 -13.8345262 4.50357861 -13 2 C-11.68 2 -10.36 2 -9 2 C-9 2.66 -9 3.32 -9 4 C-6.69 4.66 -4.38 5.32 -2 6 C-1.855625 5.38125 -1.71125 4.7625 -1.5625 4.125 C-1 2 -1 2 0 0 Z " fill="#D5DCD9" transform="translate(57,43)"/>
<path d="M0 0 C14.85 0 29.7 0 45 0 C45 0.99 45 1.98 45 3 C30.48 3 15.96 3 1 3 C0.67 2.01 0.34 1.02 0 0 Z " fill="#DFE5E2" transform="translate(83,87)"/>
<path d="M0 0 C0.66 0.33 1.32 0.66 2 1 C2.38749213 3.32495277 2.71758117 5.6599583 3 8 C3.33 8.99 3.66 9.98 4 11 C3.29296875 13.84765625 3.29296875 13.84765625 2.1875 17.0625 C1.83042969 18.12597656 1.47335938 19.18945312 1.10546875 20.28515625 C0 23 0 23 -2 25 C-2.39764263 26.98821313 -2.73775349 28.98944339 -3 31 C-3.66 31 -4.32 31 -5 31 C-5.185625 32.0828125 -5.185625 32.0828125 -5.375 33.1875 C-5.9904931 35.95721894 -6.88444374 38.3970354 -8 41 C-8.99 41 -9.98 41 -11 41 C-10.49778611 35.97786106 -9.35899168 32.43490436 -7 28 C-6.690625 27.05125 -6.38125 26.1025 -6.0625 25.125 C-5.18766374 22.55195218 -4.24587564 20.59378082 -2.9375 18.25 C0.05682337 12.46171691 0 6.3959462 0 0 Z " fill="#B8C4BE" transform="translate(166,135)"/>
<path d="M0 0 C0.33 0 0.66 0 1 0 C1.02313347 11.830381 1.04092023 23.66075665 1.05181217 35.49115562 C1.05703879 40.98402071 1.06413246 46.47687036 1.07543945 51.96972656 C1.08627614 57.26704689 1.09227851 62.56435234 1.09487724 67.86168289 C1.09673007 69.88636128 1.10034799 71.91103882 1.10573006 73.93571091 C1.11295083 76.76363661 1.1139905 79.59150021 1.11352539 82.41943359 C1.11712067 83.26316025 1.12071594 84.1068869 1.12442017 84.97618103 C1.11405216 90.77189568 1.11405216 90.77189568 0 93 C-0.99 93 -1.98 93 -3 93 C-2.67 92.01 -2.34 91.02 -2 90 C-1.34 90 -0.68 90 0 90 C-0.08432913 81.05517921 -0.17918325 72.11055036 -0.28752708 63.16598797 C-0.3375021 59.01279232 -0.38383194 54.85962227 -0.421875 50.70629883 C-0.45871273 46.69913073 -0.50506836 42.69217606 -0.55806351 38.6851902 C-0.57661555 37.15540112 -0.59172053 35.62556627 -0.60334396 34.09570885 C-0.62019284 31.9551031 -0.6492236 29.81498701 -0.68115234 27.67456055 C-0.69447601 26.45544479 -0.70779968 25.23632904 -0.7215271 23.98027039 C-0.77917995 20.81677041 -0.77917995 20.81677041 -3 18 C-2.34 18 -1.68 18 -1 18 C-1.01160156 16.86820313 -1.02320312 15.73640625 -1.03515625 14.5703125 C-1.04453454 13.08854331 -1.0536347 11.60677235 -1.0625 10.125 C-1.07506836 9.00544922 -1.07506836 9.00544922 -1.08789062 7.86328125 C-1.11328125 2.2265625 -1.11328125 2.2265625 0 0 Z " fill="#EEF1F0" transform="translate(69,30)"/>
<path d="M0 0 C6 0 6 0 9 2 C9.63963465 5.03682399 9.50350228 7.94541948 9 11 C7.3125 13.0625 7.3125 13.0625 5 14 C3.35 14 1.7 14 0 14 C0 9.38 0 4.76 0 0 Z " fill="#DAE1DE" transform="translate(94,161)"/>
<path d="M0 0 C5.11366759 4.13445465 9.44702705 8.60026926 13.78515625 13.5390625 C15.76029911 15.73366567 17.8006183 17.77779767 19.9375 19.8125 C23.73797901 23.5865868 24.88387572 26.28716682 25.25 31.6875 C25 35 25 35 23 37 C22.96261719 36.37351563 22.92523438 35.74703125 22.88671875 35.1015625 C22.82097656 34.28429687 22.75523437 33.46703125 22.6875 32.625 C22.62949219 31.81289062 22.57148438 31.00078125 22.51171875 30.1640625 C22.17009472 27.62078662 22.17009472 27.62078662 19 26 C18.5875 25.278125 18.175 24.55625 17.75 23.8125 C15.79868665 20.67646068 13.54611263 18.45831244 10.90625 15.90234375 C8.31940632 13.32080098 5.95364067 10.57201013 3.578125 7.796875 C2.11118731 6.12659942 0.59043707 4.55211328 -1 3 C-0.67 2.01 -0.34 1.02 0 0 Z " fill="#DDE3E0" transform="translate(145,108)"/>
<path d="M0 0 C11.88 0 23.76 0 36 0 C36 0.99 36 1.98 36 3 C31.19450253 3.02468447 26.38904182 3.04285255 21.58349609 3.05493164 C19.94807289 3.05996621 18.3126542 3.06679427 16.67724609 3.07543945 C14.32909025 3.08754335 11.98099381 3.093237 9.6328125 3.09765625 C8.53273361 3.10539818 8.53273361 3.10539818 7.41043091 3.11329651 C2.22774341 3.11387171 2.22774341 3.11387171 0 2 C0 1.34 0 0.68 0 0 Z " fill="#486758" transform="translate(73,145)"/>
<path d="M0 0 C10.89 0 21.78 0 33 0 C33 0.99 33 1.98 33 3 C21.78 3 10.56 3 -1 3 C-0.67 2.01 -0.34 1.02 0 0 Z " fill="#F9FAFA" transform="translate(84,104)"/>
<path d="M0 0 C0.8353125 0.37125 0.8353125 0.37125 1.6875 0.75 C-0.98728244 2.4127026 -3.3120144 3.74983813 -6.3125 4.75 C-6.3125 21.58 -6.3125 38.41 -6.3125 55.75 C-7.6325 55.75 -8.9525 55.75 -10.3125 55.75 C-10.3125 47.5 -10.3125 39.25 -10.3125 30.75 C-9.9825 30.75 -9.6525 30.75 -9.3125 30.75 C-9.3125 38.67 -9.3125 46.59 -9.3125 54.75 C-8.6525 54.75 -7.9925 54.75 -7.3125 54.75 C-7.32360306 54.11995056 -7.33470612 53.48990112 -7.34614563 52.84075928 C-7.45670251 46.28737555 -7.53215216 39.73425636 -7.5871582 33.18017578 C-7.61231355 30.73377728 -7.64644166 28.28745401 -7.68969727 25.84130859 C-7.75030071 22.32630869 -7.77870021 18.81230171 -7.80078125 15.296875 C-7.82658768 14.2019574 -7.8523941 13.10703979 -7.87898254 11.97894287 C-7.88178542 4.40310837 -7.88178542 4.40310837 -4.92651367 1.01269531 C-2.3125 -0.25 -2.3125 -0.25 0 0 Z " fill="#899C93" transform="translate(119.3125,120.25)"/>
<path d="M0 0 C0.99 0 1.98 0 3 0 C6.5459115 8.1303745 7.1245457 17.24545697 8 26 C6.68 26 5.36 26 4 26 C3.32754163 22.41772843 2.66304461 18.8340249 2 15.25 C1.80921875 14.23421875 1.6184375 13.2184375 1.421875 12.171875 C1.15117188 10.70234375 1.15117188 10.70234375 0.875 9.203125 C0.70742188 8.30239258 0.53984375 7.40166016 0.3671875 6.47363281 C0 4 0 4 0 0 Z " fill="#BBC6C1" transform="translate(50,84)"/>
<path d="M0 0 C0.99 0 1.98 0 3 0 C5.38230485 8.73511777 6.14354123 16.95690253 6 26 C2.41397529 23.29792536 2.12017633 20.07309946 1.3125 15.8125 C1.18512451 15.14210693 1.05774902 14.47171387 0.92651367 13.78100586 C0.08030007 9.09589972 -0.29025158 4.74077582 0 0 Z " fill="#E0E5E2" transform="translate(56,64)"/>
<path d="M0 0 C0.33 0 0.66 0 1 0 C1 2.31 1 4.62 1 7 C-10.55 7 -22.1 7 -34 7 C-34 6.34 -34 5.68 -34 5 C-23.11 4.67 -12.22 4.34 -1 4 C-0.67 2.68 -0.34 1.36 0 0 Z " fill="#F6F8F7" transform="translate(110,137)"/>
<path d="M0 0 C8.58 0 17.16 0 26 0 C25.67 0.99 25.34 1.98 25 3 C17.08 3 9.16 3 1 3 C0.67 2.01 0.34 1.02 0 0 Z " fill="#DBE1DF" transform="translate(103,96)"/>
<path d="M0 0 C0.33 0 0.66 0 1 0 C1 17.82 1 35.64 1 54 C0.34 54 -0.32 54 -1 54 C-3.27678571 45.96428571 -3.27678571 45.96428571 -2 42 C-2 42.99 -2 43.98 -2 45 C-1.34 45 -0.68 45 0 45 C0 30.15 0 15.3 0 0 Z " fill="#698277" transform="translate(67,50)"/>
<path d="M0 0 C2.33294775 -0.04241723 4.66702567 -0.04092937 7 0 C8 1 8 1 8.09765625 3.28515625 C8.08605469 4.20167969 8.07445313 5.11820313 8.0625 6.0625 C8.05347656 6.98160156 8.04445313 7.90070313 8.03515625 8.84765625 C8.02355469 9.55792969 8.01195313 10.26820313 8 11 C7.01 11 6.02 11 5 11 C5 8.36 5 5.72 5 3 C4.34 3 3.68 3 3 3 C3 5.64 3 8.28 3 11 C2.01 11 1.02 11 0 11 C0 7.37 0 3.74 0 0 Z " fill="#C0CBC6" transform="translate(72,164)"/>
<path d="M0 0 C4.55555556 0.55555556 4.55555556 0.55555556 6 2 C6.04063832 3.66617115 6.042721 5.33388095 6 7 C4.35 7 2.7 7 1 7 C1 7.66 1 8.32 1 9 C2.32 9.33 3.64 9.66 5 10 C4 11 4 11 1.5 11.125 C-1 11 -1 11 -2 10 C-2.27314815 4.26388889 -2.27314815 4.26388889 -2 2 C-1.34 1.34 -0.68 0.68 0 0 Z " fill="#E6EAE8" transform="translate(65,164)"/>
<path d="M0 0 C1.485 0.99 1.485 0.99 3 2 C3.33 4.64 3.66 7.28 4 10 C10.93 10.33 17.86 10.66 25 11 C25 11.33 25 11.66 25 12 C21.56255588 12.16783262 18.12503622 12.33406544 14.6875 12.5 C13.71103516 12.54769531 12.73457031 12.59539062 11.72851562 12.64453125 C10.79072266 12.68964844 9.85292969 12.73476562 8.88671875 12.78125 C7.59060669 12.8440918 7.59060669 12.8440918 6.26831055 12.90820312 C4.51337696 12.97922401 2.75637008 13 1 13 C-1 11 -1 11 -1.23046875 8.65234375 C-1.21628906 7.75644531 -1.20210938 6.86054688 -1.1875 5.9375 C-1.18105469 5.03902344 -1.17460938 4.14054687 -1.16796875 3.21484375 C-1 1 -1 1 0 0 Z " fill="#BEC9C4" transform="translate(84,122)"/>
<path d="M0 0 C2.65172666 2.65172666 2.55755267 4.50011151 3.0625 8.1875 C3.22621094 9.35023437 3.38992187 10.51296875 3.55859375 11.7109375 C3.77708984 13.33902344 3.77708984 13.33902344 4 15 C4.2070454 16.43768607 4.41502965 17.8752382 4.625 19.3125 C4.74875 20.199375 4.8725 21.08625 5 22 C4.01 22 3.02 22 2 22 C-0.35273168 15.8740194 -2.25141985 9.63269507 -2 3 C-1.34 2.01 -0.68 1.02 0 0 Z " fill="#CDD5D1" transform="translate(62,85)"/>
<path d="M0 0 C2.48046875 1.421875 2.48046875 1.421875 5 4 C5.63389665 7.09971709 5.47234026 10.10237647 5.3125 13.25 C5.28994141 14.09046875 5.26738281 14.9309375 5.24414062 15.796875 C5.18537714 17.86534964 5.09569885 19.93290488 5 22 C4.67 22 4.34 22 4 22 C4 17.05 4 12.1 4 7 C3.34 7 2.68 7 2 7 C2 12.61 2 18.22 2 24 C1.67 24 1.34 24 1 24 C1 17.4 1 10.8 1 4 C0.01 3.67 -0.98 3.34 -2 3 C-1.34 2.67 -0.68 2.34 0 2 C0 1.34 0 0.68 0 0 Z " fill="#A8B6B0" transform="translate(124,119)"/>
<path d="M0 0 C0.33 0 0.66 0 1 0 C1.50478485 2.41575607 2.00397642 4.83244361 2.5 7.25 C2.64308594 7.93191406 2.78617188 8.61382812 2.93359375 9.31640625 C3.61251049 12.64633121 4 15.58332551 4 19 C3.34 19 2.68 19 2 19 C2 20.65 2 22.3 2 24 C-2.64999498 17.02500752 -1.32042622 7.92255731 0 0 Z " fill="#BFC9C5" transform="translate(35,56)"/>
<path d="M0 0 C-0.99 3.63 -1.98 7.26 -3 11 C-4.32 10.67 -5.64 10.34 -7 10 C-7.33 7.03 -7.66 4.06 -8 1 C-5.23735711 0.40267181 -2.83967231 0 0 0 Z " fill="#BECAC5" transform="translate(62,164)"/>
<path d="M0 0 C2.64 0 5.28 0 8 0 C8 0.66 8 1.32 8 2 C6.02 2 4.04 2 2 2 C2 3.32 2 4.64 2 6 C3.32 6.33 4.64 6.66 6 7 C4.68 7 3.36 7 2 7 C2 8.65 2 10.3 2 12 C3.98 12 5.96 12 8 12 C8 12.66 8 13.32 8 14 C5.36 14 2.72 14 0 14 C0 9.38 0 4.76 0 0 Z " fill="#E7EBE9" transform="translate(45,161)"/>
<path d="M0 0 C0.33 0 0.66 0 1 0 C1 2.97 1 5.94 1 9 C-6.59 9 -14.18 9 -22 9 C-22.33 8.34 -22.66 7.68 -23 7 C-15.74 6.67 -8.48 6.34 -1 6 C-0.67 4.02 -0.34 2.04 0 0 Z " fill="#F9FAFA" transform="translate(110,127)"/>
<path d="M0 0 C1.32 0 2.64 0 4 0 C3.33501617 4.38889325 1.81242323 7.9811485 0 12 C-0.99 12 -1.98 12 -3 12 C-2.88541307 10.56163249 -2.75790884 9.12429034 -2.625 7.6875 C-2.55539063 6.88699219 -2.48578125 6.08648437 -2.4140625 5.26171875 C-2 3 -2 3 0 0 Z " fill="#ADBBB5" transform="translate(144,164)"/>
<path d="M0 0 C2.97 0.33 5.94 0.66 9 1 C8.01 1.495 8.01 1.495 7 2 C6.34786708 4.02463255 6.34786708 4.02463255 6 6 C4.35 6 2.7 6 1 6 C0.67 7.32 0.34 8.64 0 10 C0 6.7 0 3.4 0 0 Z " fill="#668174" transform="translate(47,163)"/>
<path d="M0 0 C1.16660156 0.00322266 2.33320312 0.00644531 3.53515625 0.00976562 C4.75847656 0.01814453 5.98179688 0.02652344 7.2421875 0.03515625 C8.47324219 0.03966797 9.70429687 0.04417969 10.97265625 0.04882812 C14.02088142 0.06064295 17.06901064 0.07711597 20.1171875 0.09765625 C19.7871875 1.74765625 19.4571875 3.39765625 19.1171875 5.09765625 C18.4571875 4.10765625 17.7971875 3.11765625 17.1171875 2.09765625 C13.51253332 1.43531555 9.83792926 1.63470359 6.1796875 1.66015625 C5.16455078 1.64017578 4.14941406 1.62019531 3.10351562 1.59960938 C1.64268555 1.60057617 1.64268555 1.60057617 0.15234375 1.6015625 C-0.740896 1.59970947 -1.63413574 1.59785645 -2.55444336 1.59594727 C-5.06207205 1.89725497 -5.06207205 1.89725497 -6.69750977 4.12866211 C-7.08865967 4.77843018 -7.47980957 5.42819824 -7.8828125 6.09765625 C-7.8828125 4.44765625 -7.8828125 2.79765625 -7.8828125 1.09765625 C-5.16879956 -0.25935022 -3.03434934 -0.01472985 0 0 Z " fill="#FBFBFB" transform="translate(92.8828125,120.90234375)"/>
<path d="M0 0 C2.18975773 3.28463659 2.99806563 6.20696275 4 10 C5.32 10.33 6.64 10.66 8 11 C7.67 11.99 7.34 12.98 7 14 C5.35 14 3.7 14 2 14 C0.02905192 9.07262981 -0.1799928 5.21979128 0 0 Z " fill="#E8ECEB" transform="translate(45,113)"/>
<path d="M0 0 C1.32 0 2.64 0 4 0 C4 2.97 4 5.94 4 9 C2.68 9.33 1.36 9.66 0 10 C0 6.7 0 3.4 0 0 Z " fill="#4C6C5D" transform="translate(96,163)"/>
<path d="M0 0 C1.890625 0.18359375 1.890625 0.18359375 4 1 C5.046875 3.28515625 5.046875 3.28515625 5.75 6.0625 C5.99234375 6.98160156 6.2346875 7.90070313 6.484375 8.84765625 C6.65453125 9.55792969 6.8246875 10.26820313 7 11 C5.68 11.33 4.36 11.66 3 12 C2.49166409 10.75336669 1.99368855 9.50250613 1.5 8.25 C1.2215625 7.55390625 0.943125 6.8578125 0.65625 6.140625 C0 4 0 4 0 0 Z " fill="#CAD3CF" transform="translate(46,126)"/>
<path d="M0 0 C1.32 0.33 2.64 0.66 4 1 C3.01 1.33 2.02 1.66 1 2 C1 2.99 1 3.98 1 5 C2.65 5 4.3 5 6 5 C5.01 5.495 5.01 5.495 4 6 C4 8.97 4 11.94 4 15 C3.34 15 2.68 15 2 15 C0.53329887 9.77487721 -0.22577402 5.4185766 0 0 Z " fill="#D2D9D6" transform="translate(31,48)"/>
<path d="M0 0 C10.89 0 21.78 0 33 0 C33 0.33 33 0.66 33 1 C31.61494263 1.03758423 31.61494263 1.03758423 30.2019043 1.07592773 C26.77453584 1.17109045 23.34733539 1.27032214 19.92016602 1.37231445 C18.43713985 1.4156133 16.95406546 1.45729199 15.47094727 1.49731445 C13.33855661 1.55513958 11.20640758 1.61879832 9.07421875 1.68359375 C7.79119873 1.72025146 6.50817871 1.75690918 5.1862793 1.79467773 C1.97888449 1.86561234 1.97888449 1.86561234 -1 3 C-0.67 2.01 -0.34 1.02 0 0 Z " fill="#BCC8C3" transform="translate(84,104)"/>
<path d="M0 0 C0.66 0 1.32 0 2 0 C1.52060632 4.71403788 1.03165952 8.66579301 -1 13 C-1.99 13 -2.98 13 -4 13 C-3.50269348 8.02693484 -2.44697666 4.36200187 0 0 Z " fill="#D2D9D6" transform="translate(159,163)"/>
<path d="M0 0 C0.33 0 0.66 0 1 0 C3.27678571 8.03571429 3.27678571 8.03571429 2 12 C1.67 11.01 1.34 10.02 1 9 C1 12.3 1 15.6 1 19 C-0.82355699 15.35288603 -1.38308517 13.42814698 -1.75 9.5 C-1.84796875 8.5615625 -1.9459375 7.623125 -2.046875 6.65625 C-1.99720163 3.84142593 -1.4557365 2.37397029 0 0 Z " fill="#AFBCB6" transform="translate(45,107)"/>
<path d="M0 0 C3.63 0.33 7.26 0.66 11 1 C10.67 2.65 10.34 4.3 10 6 C8.35 5.67 6.7 5.34 5 5 C5 4.34 5 3.68 5 3 C3.35 3 1.7 3 0 3 C0 2.01 0 1.02 0 0 Z " fill="#E8ECEA" transform="translate(32,50)"/>
<path d="M0 0 C0.66 0 1.32 0 2 0 C2 0.66 2 1.32 2 2 C2.66 2 3.32 2 4 2 C4 2.66 4 3.32 4 4 C3.34 4 2.68 4 2 4 C2 6.31 2 8.62 2 11 C2.66 11 3.32 11 4 11 C4 11.66 4 12.32 4 13 C2.68 13 1.36 13 0 13 C-0.19466332 11.20909747 -0.38051213 9.41723495 -0.5625 7.625 C-0.66691406 6.62726563 -0.77132812 5.62953125 -0.87890625 4.6015625 C-1 2 -1 2 0 0 Z " fill="#D8DFDC" transform="translate(83,162)"/>
<path d="M0 0 C2.64 0.33 5.28 0.66 8 1 C8 1.33 8 1.66 8 2 C5.69 2 3.38 2 1 2 C1.33 2.66 1.66 3.32 2 4 C3.1446875 4.2165625 3.1446875 4.2165625 4.3125 4.4375 C7.26109198 5.05464716 8.73296884 6.06882531 11 8 C9.56344146 8.08131463 8.1255517 8.13933559 6.6875 8.1875 C5.48673828 8.23970703 5.48673828 8.23970703 4.26171875 8.29296875 C2 8 2 8 0.1875 6.65625 C-1 5 -1 5 -0.6875 2.3125 C-0.460625 1.549375 -0.23375 0.78625 0 0 Z " fill="#DCE1DF" transform="translate(129,142)"/>
<path d="M0 0 C0.99 0 1.98 0 3 0 C5.28571429 8.42857143 5.28571429 8.42857143 5 13 C4.34 11.68 3.68 10.36 3 9 C2.34 9.66 1.68 10.32 1 11 C-0.28317892 7.15046324 -0.06643637 4.05261865 0 0 Z " fill="#C4CEC9" transform="translate(56,64)"/>
<path d="M0 0 C0.99 0.33 1.98 0.66 3 1 C3 1.66 3 2.32 3 3 C2.01 3 1.02 3 0 3 C0 11.58 0 20.16 0 29 C-0.33 29 -0.66 29 -1 29 C-1.02465881 25.03069011 -1.04284023 21.06140966 -1.05493164 17.09204102 C-1.05997057 15.74079614 -1.06680177 14.38955674 -1.07543945 13.03833008 C-1.08752419 11.09979566 -1.09269828 9.161222 -1.09765625 7.22265625 C-1.10289307 6.05484619 -1.10812988 4.88703613 -1.11352539 3.68383789 C-1 1 -1 1 0 0 Z " fill="#557364" transform="translate(72,28)"/>
<path d="M0 0 C3.96 0 7.92 0 12 0 C12 0.99 12 1.98 12 3 C8.37 3 4.74 3 1 3 C0.67 2.01 0.34 1.02 0 0 Z " fill="#D8DFDB" transform="translate(83,96)"/>
<path d="M0 0 C0.99 1.485 0.99 1.485 2 3 C2.66 2.67 3.32 2.34 4 2 C4.22245393 3.60226955 4.42746669 5.20696767 4.625 6.8125 C4.74101563 7.70582031 4.85703125 8.59914063 4.9765625 9.51953125 C5 12 5 12 3 15 C3 13.68 3 12.36 3 11 C2.34 11 1.68 11 1 11 C0.67 7.37 0.34 3.74 0 0 Z " fill="#C2CCC7" transform="translate(40,96)"/>
<path d="M0 0 C4.875 0.875 4.875 0.875 6 2 C6.04063832 3.66617115 6.042721 5.33388095 6 7 C4.35 7 2.7 7 1 7 C0.67 7.66 0.34 8.32 0 9 C0 8.01 0 7.02 0 6 C1.65 6 3.3 6 5 6 C3.35 5.67 1.7 5.34 0 5 C0 3.35 0 1.7 0 0 Z " fill="#9DAFA7" transform="translate(65,164)"/>
<path d="M0 0 C4.29 0.33 8.58 0.66 13 1 C8.56808139 4.32393895 7.30507531 4.39296854 2 4 C1.34 3.67 0.68 3.34 0 3 C0 2.01 0 1.02 0 0 Z " fill="#E6EAE9" transform="translate(50,136)"/>
<path d="M0 0 C0.99 0 1.98 0 3 0 C3.95261487 4.76307437 4.08333357 9.1666528 4 14 C1.8553857 11.8553857 1.55435397 10.98260002 0.875 8.125 C0.70742188 7.44695312 0.53984375 6.76890625 0.3671875 6.0703125 C0 4 0 4 0 0 Z " fill="#DEE4E1" transform="translate(50,84)"/>
<path d="M0 0 C0.66 0.33 1.32 0.66 2 1 C2 1.99 2 2.98 2 4 C-1.63 4.33 -5.26 4.66 -9 5 C-9 4.01 -9 3.02 -9 2 C-6.94921875 1.77213542 -4.8984375 1.54427083 -2.84765625 1.31640625 C-0.98859771 1.18113386 -0.98859771 1.18113386 0 0 Z " fill="#BCC8C2" transform="translate(65,120)"/>
<path d="M0 0 C2 1 2 1 2.62109375 2.765625 C3.02399618 5.14150323 3.09791478 7.34179517 3.0625 9.75 C3.05347656 10.54921875 3.04445312 11.3484375 3.03515625 12.171875 C3.01775391 13.07679687 3.01775391 13.07679687 3 14 C0.48073099 9.12941325 -0.10395221 5.50946709 0 0 Z " fill="#E9EDEB" transform="translate(40,89)"/>
<path d="M0 0 C0.33 0 0.66 0 1 0 C1 3.3 1 6.6 1 10 C-2 10 -2 10 -5 9 C-5 8.34 -5 7.68 -5 7 C-3.35 7 -1.7 7 0 7 C-0.185625 6.030625 -0.37125 5.06125 -0.5625 4.0625 C-0.706875 3.051875 -0.85125 2.04125 -1 1 C-0.67 0.67 -0.34 0.34 0 0 Z " fill="#456657" transform="translate(71,164)"/>
<path d="M0 0 C-0.33 1.32 -0.66 2.64 -1 4 C-2.32 4.33 -3.64 4.66 -5 5 C-5.66 3.68 -6.32 2.36 -7 1 C-2.25 0 -2.25 0 0 0 Z " fill="#E5E9E7" transform="translate(57,48)"/>
<path d="M0 0 C0.99 0 1.98 0 3 0 C2.34 2.64 1.68 5.28 1 8 C0.01 7.67 -0.98 7.34 -2 7 C-1.34 4.69 -0.68 2.38 0 0 Z " fill="#B3C1BB" transform="translate(59,164)"/>
<path d="M0 0 C0.66 0.33 1.32 0.66 2 1 C2 1.99 2 2.98 2 4 C-0.5 6.1875 -0.5 6.1875 -3 8 C-3.75 6.25 -3.75 6.25 -4 4 C-2.0625 1.75 -2.0625 1.75 0 0 Z " fill="#D5DCD9" transform="translate(72,24)"/>
<path d="M0 0 C0.33 0 0.66 0 1 0 C0.67 2.64 0.34 5.28 0 8 C-0.99 8.33 -1.98 8.66 -3 9 C-3.25873987 5.89512156 -3.23307327 4.37494396 -1.5625 1.6875 C-1.046875 1.130625 -0.53125 0.57375 0 0 Z " fill="#DEE4E1" transform="translate(167,146)"/>
<path d="M0 0 C0.66 0 1.32 0 2 0 C1.67 2.64 1.34 5.28 1 8 C0.01 8 -0.98 8 -2 8 C-1.47731534 5.23723823 -0.89130413 2.6739124 0 0 Z " fill="#D8DFDC" transform="translate(143,168)"/>
<path d="M0 0 C1.65 1.32 3.3 2.64 5 4 C3.02 4.99 3.02 4.99 1 6 C-0.5 4.625 -0.5 4.625 -2 3 C-2 2.34 -2 1.68 -2 1 C-1.34 0.67 -0.68 0.34 0 0 Z " fill="#CBD4D0" transform="translate(70,144)"/>
<path d="M0 0 C1.98 1.65 3.96 3.3 6 5 C5.01 5.66 4.02 6.32 3 7 C1.68 5.68 0.36 4.36 -1 3 C-0.67 2.01 -0.34 1.02 0 0 Z " fill="#DBE1DE" transform="translate(145,108)"/>
<path d="M0 0 C0.66 0 1.32 0 2 0 C2 0.66 2 1.32 2 2 C2.99 2.66 3.98 3.32 5 4 C4.01 4.33 3.02 4.66 2 5 C1.34 5.66 0.68 6.32 0 7 C0 6.34 0 5.68 0 5 C-0.66 5 -1.32 5 -2 5 C-1.34 3.35 -0.68 1.7 0 0 Z " fill="#C1CBC7" transform="translate(57,43)"/>
<path d="M0 0 C1.32 0 2.64 0 4 0 C4.33 1.32 4.66 2.64 5 4 C3.35 4.33 1.7 4.66 0 5 C0 3.35 0 1.7 0 0 Z " fill="#DDE3E1" transform="translate(44,45)"/>
</svg>
